PathFileType	4	(X/Y/Z)	D:\MotionData\Pi-Spi Study\20230118_AMCsubject1\Trimmed_right_horiz_abd01_rotated.trc
DataRate	CameraRate	NumFrames	NumMarkers	Units	OrigDataRate	OrigDataStartFrame	OrigNumFrames
200.00	200.00	       5	35	mm	200.00	1	       200
Frame#	Time	C7			Sternum			r_AMC1			r_AMC2			r_AMC3			l_AMC1			l_AMC2			l_AMC3			PX			T8			r_humerous			r_elbow_medial			r_elbow_lateral			r_forearm			r_wrist_radius			r_wrist_ulna			r_MCP_1			r_MCP_3			l_humerous			l_elbow_medial			l_elbow_lateral			l_forearm			l_wrist_radius			l_wrist_ulna			l_MCP_1			l_MCP_3			r_ASIS			r_PSIS			l_ASIS			l_PSIS			r_IC			l_IC			TS			AI			AA			
		X1	Y1	Z1	X2	Y2	Z2	X3	Y3	Z3	X4	Y4	Z4	X5	Y5	Z5	X6	Y6	Z6	X7	Y7	Z7	X8	Y8	Z8	X9	Y9	Z9	X10	Y10	Z10	X11	Y11	Z11	X12	Y12	Z12	X13	Y13	Z13	X14	Y14	Z14	X15	Y15	Z15	X16	Y16	Z16	X17	Y17	Z17	X18	Y18	Z18	X19	Y19	Z19	X20	Y20	Z20	X21	Y21	Z21	X22	Y22	Z22	X23	Y23	Z23	X24	Y24	Z24	X25	Y25	Z25	X26	Y26	Z26	X27	Y27	Z27	X28	Y28	Z28	X29	Y29	Z29	X30	Y30	Z30	X31	Y31	Z31	X32	Y32	Z32	X33	Y33	Z33	X34	Y34	Z34	X35	Y35	Z35	

1	0	216.0283	1376.7378	-263.2935	343.2462	1309.1112	-233.7951	173.6924	1363.7537	-137.5191	200.126	1387.3754	-102.4432	225.1006	1407.2651	-134.5327	242.2016	1313.5815	-410.0586	279.9836	1300.9657	-441.4608	307.152	1335.5689	-411.328	378.1905	1112.8574	-200.5801	156.5283	1199.9841	-253.6886	235.7055	1368.1517	46.1554	202.5307	1282.0039	167.5499	159.2542	1323.6461	158.4454	115.7078	1340.8146	316.888	113.2119	1365.6655	389.1118	110.0439	1313.8141	386.3387	96.129	1370.9164	473.7346	99.1708	1323.4307	473.1951	345.7931	1105.5981	-417.7355	264.5858	978.1928	-407.4858	286.4945	974.8459	-459.0039	346.3652	827.1379	-472.8568	389.442	757.8366	-445.3514	350.0548	752.3165	-467.2652	405.4065	680.6798	-452.8839	362.0153	676.1847	-469.8449	343.8686	906.2642	-63.8862	159.4864	929.5919	-155.9533	357.4359	889.9043	-324.9311	165.7945	923.077	-259.3661	260.4655	971.8975	-42.2072	270.6818	937.2917	-367.6842	114.2604	1330.8136	-208.8577	99.0391	1235.0702	-177.0704	130.2602	1366.6404	-69.9399
2	0.005	216.0447	1376.7379	-263.2901	343.2241	1309.1115	-233.7551	173.669	1363.7355	-137.5187	200.1032	1387.3835	-102.42	225.0419	1407.3117	-134.4955	242.2704	1313.5377	-410.1107	280.0131	1300.9646	-441.4454	307.0516	1335.6129	-411.1103	378.2004	1112.8779	-200.5956	156.5121	1199.9784	-253.6829	235.7188	1368.0963	46.176	202.4142	1282.0643	167.6109	159.1946	1323.6632	158.4432	115.6098	1340.8814	316.8957	113.1293	1365.7405	389.1031	109.9574	1313.8908	386.3436	96.1384	1371.2096	473.7561	99.1086	1323.519	473.1955	345.8555	1105.5127	-417.7857	264.5934	978.191	-407.4523	286.4786	974.8422	-458.9803	346.3558	827.1585	-472.7951	389.4538	757.8537	-445.283	350.0214	752.2807	-467.1908	405.4131	680.679	-452.8419	362.0227	676.2103	-469.7987	343.8335	906.2776	-63.8408	159.9021	929.2957	-156.0485	357.4316	889.9046	-324.921	165.7811	923.0793	-259.3478	260.4132	971.9271	-42.1831	270.6139	937.3186	-367.6499	114.2329	1330.8053	-208.8227	99.0299	1235.0503	-177.0225	130.2321	1366.635	-69.9283
3	0.01	216.0255	1376.7369	-263.2766	343.2199	1309.126	-233.7751	173.6565	1363.7317	-137.5183	200.0499	1387.4038	-102.4007	224.976	1407.3376	-134.4828	242.1731	1313.6527	-409.9611	280.0179	1300.954	-441.4353	307.105	1335.6851	-411.2408	378.1187	1112.8827	-200.5289	156.5109	1199.9869	-253.6921	235.6756	1368.1345	46.1842	202.3415	1282.1041	167.6038	159.1093	1323.6658	158.4325	115.5478	1340.9404	316.893	113.0369	1365.8149	389.0915	109.8831	1313.9594	386.3471	95.9578	1371.1046	473.7183	99.0295	1323.6268	473.2229	345.8097	1105.5646	-417.7	264.545	978.1658	-407.4011	286.4776	974.8677	-458.9448	346.318	827.1986	-472.7402	389.4449	757.8738	-445.2415	350.2261	752.169	-467.0703	405.3702	680.7766	-452.7491	362.0158	676.2071	-469.7156	343.8257	906.2894	-63.8373	159.886	929.3063	-156.03	357.4392	889.9197	-324.8876	165.7744	923.0685	-259.336	260.4123	971.9338	-42.1776	270.537	937.4262	-367.7002	114.205	1330.7972	-208.8141	99.0197	1235.0391	-177.0068	130.1968	1366.6357	-69.9063
4	0.015	215.9984	1376.7452	-263.2618	343.2285	1309.1408	-233.7448	173.6276	1363.7428	-137.4943	200.0271	1387.4131	-102.3889	224.946	1407.3564	-134.4616	242.2288	1313.5918	-410.0104	280.0094	1301.02	-441.4459	307.1417	1335.6725	-411.3272	378.1389	1112.8909	-200.4575	156.4886	1199.9768	-253.6793	235.5795	1368.2266	46.1906	202.2389	1282.1218	167.5935	159.0685	1323.7124	158.4427	115.4592	1340.985	316.8985	112.9571	1365.8893	389.0645	109.8102	1314.0354	386.3568	95.887	1371.21	473.6934	98.9642	1323.7122	473.246	345.7895	1105.67	-417.7509	264.5713	978.1851	-407.3848	286.4816	974.8645	-458.9345	346.2706	827.251	-472.7124	389.4533	757.8813	-445.1873	350.031	752.3059	-467.0853	405.4283	680.6956	-452.644	362.0456	676.2271	-469.66	343.7842	906.3143	-63.8187	159.8674	929.3165	-156.0131	357.4086	889.9059	-324.8454	165.7646	923.0671	-259.3068	260.3748	971.9539	-42.1574	270.5931	937.3428	-367.6254	114.1893	1330.7762	-208.7978	99.022	1235.0441	-177.0019	130.1771	1366.6483	-69.8934
5	0.02	216.0048	1376.745	-263.26	343.1787	1309.1373	-233.7249	173.6148	1363.7372	-137.4763	199.9912	1387.4235	-102.3803	224.8674	1407.4142	-134.4429	242.1939	1313.7115	-410.0081	280.0389	1301.0103	-441.4309	307.0246	1335.6969	-410.9263	378.118	1112.9216	-200.4291	156.4862	1199.9925	-253.6728	235.5761	1368.2129	46.196	202.1645	1282.148	167.6542	158.9976	1323.7346	158.4376	115.3981	1341.0346	316.9105	112.8722	1365.9612	389.0661	109.764	1314.1897	386.3492	95.902	1371.4932	473.7126	98.9204	1323.8013	473.2374	345.8065	1105.6126	-417.7297	264.5639	978.187	-407.3836	286.4703	974.8757	-458.9005	346.3237	827.2606	-472.6501	389.4542	757.8881	-445.1336	350.0446	752.321	-467.0223	405.4167	680.7093	-452.5568	362.0479	676.2164	-469.6012	343.7783	906.2974	-63.7936	159.7538	929.377	-155.9247	357.4185	889.9365	-324.8352	165.7728	923.075	-259.299	260.3715	971.9929	-42.1347	270.5826	937.3862	-367.6292	114.1866	1330.777	-208.7851	98.9916	1235.0155	-176.9443	130.1711	1366.625	-69.8871
